# xmcd CD database file
#
# Track frame offsets:
#	150
#	17175
#	36390
#	55526
#	75988
#
# Disc length: 1312 seconds
#
# Revision: 0
# Processed by: cddbd v1.5.1PL2 Copyright (c) Steve Scherf et al.
# Submitted via: CDex 1.51
#
DISCID=30051e05
DTITLE=Prof.Moriarty&Smiley-Todd - さよならリフレイン
DYEAR=2005
DGENRE=Rock
TTITLE0=さよなら明日
TTITLE1=ローリン
TTITLE2=遠い街
TTITLE3=さよならＴシャツガール
TTITLE4=運命線
EXTD=YEAR: 2005
EXTT0=
EXTT1=
EXTT2=
EXTT3=
EXTT4=
PLAYORDER=
